<?xml version="1.0" encoding="UTF-8" standalone="no"?>
<svg
   xmlns:osb="http://www.openswatchbook.org/uri/2009/osb"
   xmlns:dc="http://purl.org/dc/elements/1.1/"
   xmlns:cc="http://creativecommons.org/ns#"
   xmlns:rdf="http://www.w3.org/1999/02/22-rdf-syntax-ns#"
   xmlns:svg="http://www.w3.org/2000/svg"
   xmlns="http://www.w3.org/2000/svg"
   xmlns:sodipodi="http://sodipodi.sourceforge.net/DTD/sodipodi-0.dtd"
   xmlns:inkscape="http://www.inkscape.org/namespaces/inkscape"
   viewBox="0 0 1440.769 900"
   version="1.1"
   id="svg260"
   sodipodi:docname="footer.svg"
   inkscape:version="0.92.4 (5da689c313, 2019-01-14)">
  <metadata
     id="metadata266">
    <rdf:RDF>
      <cc:Work
         rdf:about="">
        <dc:format>image/svg+xml</dc:format>
        <dc:type
           rdf:resource="http://purl.org/dc/dcmitype/StillImage" />
        <dc:title></dc:title>
      </cc:Work>
    </rdf:RDF>
  </metadata>
  <defs
     id="defs264">
    <linearGradient
       id="linearGradient6286"
       osb:paint="solid">
      <stop
         style="stop-color:#8f1847;stop-opacity:1;"
         offset="0"
         id="stop6284" />
    </linearGradient>
  </defs>
  <sodipodi:namedview
     pagecolor="#ffffff"
     bordercolor="#666666"
     borderopacity="1"
     objecttolerance="10"
     gridtolerance="10"
     guidetolerance="10"
     inkscape:pageopacity="0"
     inkscape:pageshadow="2"
     inkscape:window-width="1360"
     inkscape:window-height="705"
     id="namedview262"
     showgrid="false"
     inkscape:zoom="0.34"
     inkscape:cx="242.44335"
     inkscape:cy="344.59611"
     inkscape:window-x="-8"
     inkscape:window-y="-8"
     inkscape:window-maximized="1"
     inkscape:current-layer="svg260" />
  <path
     style="fill:#8c28ac;fill-opacity:1;stroke-width:1.68184805"
     d="m 435.35932,1.4189156 c 29.06538,3.9951934 57.10415,15.5938944 81.58033,33.7470494 7.77072,5.763282 29.61832,25.735196 48.55023,44.382018 18.9319,18.646844 38.19962,36.623757 42.81716,39.948727 21.4399,15.43838 39.02351,20.71968 64.64552,19.41642 35.13191,-1.78694 62.33051,-12.80979 93.02464,-37.70033 37.09936,-30.084668 45.66726,-36.291688 58.87298,-42.650545 20.0963,-9.676771 30.40486,-11.971414 58.32648,-12.983267 47.1028,-1.706958 67.70747,4.228341 140.16254,40.374511 74.7243,37.278211 102.9991,44.547061 160.9636,41.380201 47.2265,-2.58021 88.9145,-15.55578 148.5378,-46.233014 31.5028,-16.208691 41.5346,-18.958492 58.0877,-15.922258 14.8616,2.725937 29.7856,10.852708 42.0059,22.873899 l 10.7273,10.552611 -10e-4,269.313652 c -6e-4,148.12249 -0.5028,329.01152 -1.1159,401.97561 l -1.1147,132.66195 H 722.20982 2.989892 V 473.64108 44.726032 l 7.2915,9.871737 c 23.197599,31.406444 54.965499,53.193671 84.453799,57.920561 25.319209,4.05859 46.830309,-2.67073 81.202429,-25.402668 69.1838,-45.754576 131.517,-73.260236 188.8993,-83.3553347 18.7306,-3.29522818 54.8572,-4.49467974 70.5224,-2.3414117 z"
     id="path3971"
     inkscape:connector-curvature="0" />
  <path
     style="opacity:0;fill:#7f2aff;fill-opacity:1;fill-rule:nonzero;stroke-width:1.66666663"
     d="m 1012.0512,898.03241 c -16.58053,-1.60388 -36.06606,-7.10177 -52.55383,-14.8282 -26.48,-12.40895 -36.0588,-20.01228 -88.27952,-70.07345 -45.485,-43.60398 -56.64971,-50.05122 -89.01358,-51.40222 -22.04215,-0.92011 -36.73217,1.2296 -55.89062,8.17897 -18.63975,6.76122 -31.10951,14.64753 -62.5958,39.5878 -27.45841,21.74978 -44.9138,32.48462 -62.94728,38.71175 -13.74222,4.7453 -49.81132,7.21593 -71.40487,4.89103 -29.8509,-3.21393 -45.77351,-9.02668 -113.14785,-41.30595 -59.09756,-28.31383 -78.6332,-35.11021 -111.78566,-38.88986 -18.87884,-2.15234 -50.2013,-0.99022 -74.04767,2.74728 -33.59122,5.26483 -67.73026,17.20452 -111.66667,39.05393 -33.310372,16.56512 -42.841754,20.00432 -55.440004,20.00432 -19.385246,0 -37.586573,-8.58568 -54.4197652,-25.67013 l -9.02644065,-9.16119 1.119879,-395.50101 C 1.5674525,186.84993 2.5293243,7.1869759 3.089012,5.1244759 l 1.017614,-3.75 H 722.24557 1440.3845 V 427.31699 853.25951 l -9.7052,-12.19252 c -27.5236,-34.57756 -62.6281,-54.7319 -95.2283,-54.67273 -21.2795,0.0387 -35.7283,5.98918 -76.176,31.37215 -65.3742,41.02553 -117.2835,64.27048 -167.8591,75.16718 -12.7905,2.75575 -61.5952,7.565 -66.0314,6.50677 -0.4583,-0.10933 -6.4583,-0.7429 -13.3333,-1.40795 z"
     id="path6238"
     inkscape:connector-curvature="0" />
</svg>
