<?xml version="1.0" encoding="UTF-8" standalone="no"?>
<svg
   xmlns:osb="http://www.openswatchbook.org/uri/2009/osb"
   xmlns:dc="http://purl.org/dc/elements/1.1/"
   xmlns:cc="http://creativecommons.org/ns#"
   xmlns:rdf="http://www.w3.org/1999/02/22-rdf-syntax-ns#"
   xmlns:svg="http://www.w3.org/2000/svg"
   xmlns="http://www.w3.org/2000/svg"
   xmlns:xlink="http://www.w3.org/1999/xlink"
   xmlns:sodipodi="http://sodipodi.sourceforge.net/DTD/sodipodi-0.dtd"
   xmlns:inkscape="http://www.inkscape.org/namespaces/inkscape"
   viewBox="0 0 1440.769 900"
   version="1.1"
   id="svg260"
   sodipodi:docname="hero-bg1.svg"
   inkscape:version="0.92.4 (5da689c313, 2019-01-14)">
  <metadata
     id="metadata266">
    <rdf:RDF>
      <cc:Work
         rdf:about="">
        <dc:format>image/svg+xml</dc:format>
        <dc:type
           rdf:resource="http://purl.org/dc/dcmitype/StillImage" />
        <dc:title></dc:title>
      </cc:Work>
    </rdf:RDF>
  </metadata>
  <defs
     id="defs264">
    <linearGradient
       id="linearGradient6286"
       osb:paint="solid">
      <stop
         style="stop-color:#8f1847;stop-opacity:1;"
         offset="0"
         id="stop6284" />
    </linearGradient>
    <linearGradient
       inkscape:collect="always"
       xlink:href="#linearGradient6286"
       id="linearGradient6288"
       x1="0.04870059"
       y1="449.97538"
       x2="1440.7203"
       y2="449.97538"
       gradientUnits="userSpaceOnUse" />
  </defs>
  <sodipodi:namedview
     pagecolor="#ffffff"
     bordercolor="#666666"
     borderopacity="1"
     objecttolerance="10"
     gridtolerance="10"
     guidetolerance="10"
     inkscape:pageopacity="0"
     inkscape:pageshadow="2"
     inkscape:window-width="1360"
     inkscape:window-height="705"
     id="namedview262"
     showgrid="false"
     inkscape:zoom="0.34"
     inkscape:cx="242.44335"
     inkscape:cy="344.59611"
     inkscape:window-x="-8"
     inkscape:window-y="-8"
     inkscape:window-maximized="1"
     inkscape:current-layer="svg260" />
  <path
     data-name="Path 1"
     d="M1440.769 855.623s-68.631-114.057-163.147-49.2c-61.726 42.355-134.3 80.366-206.179 90.793-182.437 26.462-191.475-144.56-301.292-136.511s-104.537 94.92-218.225 94.92-158.037-93.579-295.66-83.181c-58.352 4.409-113.033 27.509-156.731 52.7C40.322 859.273-.001 800.209-.001 800.209L1.435.009h1439.334z"
     fill="#f0f0f0"
     id="path258" />
  <path
     style="fill:url(#linearGradient6288);stroke-width:1.67910445;fill-opacity:1"
     d="m 1008.3509,898.53538 c -29.06538,-3.98216 -57.10415,-15.54306 -81.58033,-33.63704 -7.77072,-5.7445 -29.61832,-25.6513 -48.55023,-44.23734 -18.9319,-18.58604 -38.19962,-36.50437 -42.81716,-39.8185 -21.4399,-15.38805 -39.02351,-20.65211 -64.64552,-19.35312 -35.13191,1.78111 -62.33051,12.76803 -93.02464,37.57743 -37.09936,29.98661 -45.66726,36.17339 -58.87298,42.5115 -20.0963,9.64523 -30.40486,11.93241 -58.32648,12.94095 -47.1028,1.70138 -67.70747,-4.21456 -140.16256,-40.24288 -74.7243,-37.1567 -102.99909,-44.40184 -160.96359,-41.24529 -47.22643,2.57178 -88.91444,15.50505 -148.53781,46.08227 C 79.366859,835.26921 69.335061,838.01005 52.781962,834.98373 37.920371,832.26667 22.996289,824.1664 10.776058,812.1844 L 0.04870059,801.66617 0.04987244,533.23047 C 0.05051704,385.59085 0.55266331,205.29151 1.1657532,132.5653 L 2.2804622,0.3358209 H 721.5004 1440.7203 V 427.85263 855.36944 l -7.2915,-9.83957 c -23.1976,-31.30405 -54.9655,-53.02025 -84.4538,-57.73173 -25.3192,-4.04536 -46.8303,2.66202 -81.2024,25.31986 -69.1838,45.60541 -131.517,73.02141 -188.8993,83.0836 -18.7306,3.28449 -54.8572,4.48002 -70.5224,2.33378 z"
     id="path3971"
     inkscape:connector-curvature="0" />
  <path
     style="opacity:0;fill:#7f2aff;fill-opacity:1;fill-rule:nonzero;stroke-width:1.66666663"
     d="m 1012.0512,898.03241 c -16.58053,-1.60388 -36.06606,-7.10177 -52.55383,-14.8282 -26.48,-12.40895 -36.0588,-20.01228 -88.27952,-70.07345 -45.485,-43.60398 -56.64971,-50.05122 -89.01358,-51.40222 -22.04215,-0.92011 -36.73217,1.2296 -55.89062,8.17897 -18.63975,6.76122 -31.10951,14.64753 -62.5958,39.5878 -27.45841,21.74978 -44.9138,32.48462 -62.94728,38.71175 -13.74222,4.7453 -49.81132,7.21593 -71.40487,4.89103 -29.8509,-3.21393 -45.77351,-9.02668 -113.14785,-41.30595 -59.09756,-28.31383 -78.6332,-35.11021 -111.78566,-38.88986 -18.87884,-2.15234 -50.2013,-0.99022 -74.04767,2.74728 -33.59122,5.26483 -67.73026,17.20452 -111.66667,39.05393 -33.310372,16.56512 -42.841754,20.00432 -55.440004,20.00432 -19.385246,0 -37.586573,-8.58568 -54.4197652,-25.67013 l -9.02644065,-9.16119 1.119879,-395.50101 C 1.5674525,186.84993 2.5293243,7.1869759 3.089012,5.1244759 l 1.017614,-3.75 H 722.24557 1440.3845 V 427.31699 853.25951 l -9.7052,-12.19252 c -27.5236,-34.57756 -62.6281,-54.7319 -95.2283,-54.67273 -21.2795,0.0387 -35.7283,5.98918 -76.176,31.37215 -65.3742,41.02553 -117.2835,64.27048 -167.8591,75.16718 -12.7905,2.75575 -61.5952,7.565 -66.0314,6.50677 -0.4583,-0.10933 -6.4583,-0.7429 -13.3333,-1.40795 z"
     id="path6238"
     inkscape:connector-curvature="0" />
</svg>
